<svg
  xmlns="http://www.w3.org/2000/svg"
  viewBox="0 0 24 24"
  width="50"
  height="50"
  fill="none"
>
  <circle cx="12" cy="12" r="11.5" fill="#000000" stroke="#EDEDED" />
  <path
    fill="#fff"
    d="M16.601 13.86c-.287-.143-1.703-.842-1.966-.936-.262-.095-.452-.143-.643.143-.19.287-.738.936-.905 1.126-.167.19-.333.214-.62.071-.287-.143-1.21-.445-2.305-1.417-.85-.757-1.424-1.693-1.59-1.98-.167-.286-.018-.44.125-.583.129-.13.286-.333.429-.5.143-.167.19-.286.286-.476.095-.19.048-.357-.024-.5-.072-.143-.643-1.548-.88-2.117-.23-.555-.465-.482-.643-.491h-.55c-.19 0-.5.071-.762.357-.262.286-1.005.982-1.005 2.393 0 1.41 1.031 2.773 1.175 2.96.143.19 2.03 3.095 4.918 4.183.687.296 1.224.472 1.643.603.69.22 1.318.19 1.815.116.554-.082 1.703-.695 1.944-1.368.238-.672.238-1.246.166-1.368-.071-.12-.262-.19-.548-.333z"
  />
</svg>
